<mxfile host="Electron" modified="2023-12-08T09:23:09.905Z" agent="Mozilla/5.0 (Macintosh; Intel Mac OS X 10_15_7) AppleWebKit/537.36 (KHTML, like Gecko) draw.io/22.1.2 Chrome/114.0.5735.289 Electron/25.9.4 Safari/537.36" etag="YQhDtHOsuU1TUHf2DhHI" version="22.1.2" type="device">
  <diagram name="Page-1" id="c4acf3e9-155e-7222-9cf6-157b1a14988f">
    <mxGraphModel dx="2590" dy="2210" grid="1" gridSize="10" guides="1" tooltips="1" connect="1" arrows="1" fold="1" page="1" pageScale="1" pageWidth="850" pageHeight="1100" background="none" math="0" shadow="0">
      <root>
        <mxCell id="0" />
        <mxCell id="1" parent="0" />
        <mxCell id="3DSVacBIxbCdVNpHXnvW-10" value="&lt;p style=&quot;margin:0px;margin-top:4px;text-align:center;&quot;&gt;&lt;i&gt;&lt;font color=&quot;#009900&quot;&gt;&amp;lt;&amp;lt;Interface&amp;gt;&amp;gt;&lt;/font&gt;&lt;/i&gt;&lt;br&gt;&lt;/p&gt;&lt;div style=&quot;font-family: &amp;quot;JetBrains Mono&amp;quot;, monospace;&quot;&gt;&lt;pre style=&quot;text-align: center;&quot;&gt;&lt;font style=&quot;font-size: 13px;&quot;&gt;IConnectorCallback&lt;/font&gt;&lt;/pre&gt;&lt;/div&gt;&lt;hr size=&quot;1&quot;&gt;&lt;p style=&quot;margin:0px;margin-left:4px;&quot;&gt;+&amp;nbsp;didReceiveMessage&lt;span style=&quot;background-color: initial;&quot;&gt;(String): void&lt;/span&gt;&lt;/p&gt;&lt;p style=&quot;margin:0px;margin-left:4px;&quot;&gt;&lt;span style=&quot;color: rgb(255, 0, 0); background-color: initial;&quot;&gt;&lt;font style=&quot;font-size: 11px;&quot;&gt;//处理收到的 WS 消息&lt;/font&gt;&lt;/span&gt;&lt;/p&gt;&lt;p style=&quot;margin:0px;margin-left:4px;&quot;&gt;&lt;span style=&quot;background-color: initial;&quot;&gt;....&lt;/span&gt;&lt;/p&gt;" style="verticalAlign=top;align=left;overflow=fill;fontSize=12;fontFamily=Helvetica;html=1;whiteSpace=wrap;" vertex="1" parent="1">
          <mxGeometry x="310" y="220" width="210" height="110" as="geometry" />
        </mxCell>
        <mxCell id="3DSVacBIxbCdVNpHXnvW-11" value="&lt;p style=&quot;margin:0px;margin-top:4px;text-align:center;&quot;&gt;&lt;i&gt;&lt;font color=&quot;#009900&quot;&gt;&amp;lt;&amp;lt;Interface&amp;gt;&amp;gt;&lt;/font&gt;&lt;/i&gt;&lt;br&gt;&lt;/p&gt;&lt;div style=&quot;font-family: &amp;quot;JetBrains Mono&amp;quot;, monospace;&quot;&gt;&lt;pre style=&quot;text-align: center;&quot;&gt;&lt;div style=&quot;font-family: &amp;quot;JetBrains Mono&amp;quot;, monospace;&quot;&gt;&lt;pre style=&quot;&quot;&gt;&lt;font style=&quot;font-size: 14px;&quot;&gt;ISubscribeCallback&lt;/font&gt;&lt;/pre&gt;&lt;/div&gt;&lt;/pre&gt;&lt;/div&gt;&lt;hr size=&quot;1&quot;&gt;&lt;p style=&quot;margin:0px;margin-left:4px;&quot;&gt;+&amp;nbsp;message&lt;span style=&quot;background-color: initial;&quot;&gt;(Object): Object&lt;font style=&quot;font-size: 11px;&quot; color=&quot;#ff0000&quot;&gt;//数据转换&lt;/font&gt;&lt;/span&gt;&lt;/p&gt;&lt;p style=&quot;margin:0px;margin-left:4px;&quot;&gt;&lt;span style=&quot;background-color: initial;&quot;&gt;....&lt;/span&gt;&lt;/p&gt;" style="verticalAlign=top;align=left;overflow=fill;fontSize=12;fontFamily=Helvetica;html=1;whiteSpace=wrap;" vertex="1" parent="1">
          <mxGeometry x="30" y="220" width="205" height="110" as="geometry" />
        </mxCell>
        <mxCell id="3DSVacBIxbCdVNpHXnvW-12" value="&lt;p style=&quot;margin:0px;margin-top:4px;text-align:center;&quot;&gt;&lt;i&gt;&lt;font color=&quot;#009900&quot;&gt;&amp;lt;&amp;lt;Interface&amp;gt;&amp;gt;&lt;/font&gt;&lt;/i&gt;&lt;br&gt;&lt;/p&gt;&lt;div style=&quot;font-family: &amp;quot;JetBrains Mono&amp;quot;, monospace;&quot;&gt;&lt;pre style=&quot;text-align: center;&quot;&gt;&lt;div style=&quot;font-family: &amp;quot;JetBrains Mono&amp;quot;, monospace;&quot;&gt;&lt;pre style=&quot;&quot;&gt;&lt;div style=&quot;font-family: &amp;quot;JetBrains Mono&amp;quot;, monospace;&quot;&gt;&lt;pre style=&quot;&quot;&gt;&lt;font style=&quot;font-size: 14px;&quot;&gt;IConnector&lt;/font&gt;&lt;/pre&gt;&lt;/div&gt;&lt;/pre&gt;&lt;/div&gt;&lt;/pre&gt;&lt;/div&gt;&lt;hr size=&quot;1&quot;&gt;&lt;p style=&quot;margin:0px;margin-left:4px;&quot;&gt;+&amp;nbsp;start&lt;span style=&quot;background-color: initial;&quot;&gt;(String): boolean&lt;/span&gt;&lt;/p&gt;&lt;p style=&quot;margin:0px;margin-left:4px;&quot;&gt;+&amp;nbsp;connect(): void&lt;br&gt;&lt;/p&gt;&lt;p style=&quot;margin:0px;margin-left:4px;&quot;&gt;+ setCallback(IConnectorCallback):void&lt;/p&gt;&lt;p style=&quot;margin:0px;margin-left:4px;&quot;&gt;...&lt;/p&gt;&lt;p style=&quot;margin:0px;margin-left:4px;&quot;&gt;&lt;br&gt;&lt;/p&gt;" style="verticalAlign=top;align=left;overflow=fill;fontSize=12;fontFamily=Helvetica;html=1;whiteSpace=wrap;" vertex="1" parent="1">
          <mxGeometry x="630" y="210" width="220" height="130" as="geometry" />
        </mxCell>
        <mxCell id="3DSVacBIxbCdVNpHXnvW-13" value="&lt;p style=&quot;margin:0px;margin-top:4px;text-align:center;&quot;&gt;&lt;i&gt;&lt;font color=&quot;#009900&quot;&gt;&amp;lt;&amp;lt;Interface&amp;gt;&amp;gt;&lt;/font&gt;&lt;/i&gt;&lt;br&gt;&lt;/p&gt;&lt;div style=&quot;font-family: &amp;quot;JetBrains Mono&amp;quot;, monospace;&quot;&gt;&lt;pre style=&quot;text-align: center;&quot;&gt;&lt;div style=&quot;font-family: &amp;quot;JetBrains Mono&amp;quot;, monospace;&quot;&gt;&lt;pre style=&quot;&quot;&gt;&lt;div style=&quot;font-family: &amp;quot;JetBrains Mono&amp;quot;, monospace;&quot;&gt;&lt;pre style=&quot;&quot;&gt;&lt;div style=&quot;font-family: &amp;quot;JetBrains Mono&amp;quot;, monospace;&quot;&gt;&lt;pre style=&quot;&quot;&gt;&lt;font style=&quot;font-size: 14px;&quot;&gt;IMessageSubscribe&lt;/font&gt;&lt;/pre&gt;&lt;/div&gt;&lt;/pre&gt;&lt;/div&gt;&lt;/pre&gt;&lt;/div&gt;&lt;/pre&gt;&lt;/div&gt;&lt;hr size=&quot;1&quot;&gt;&lt;p style=&quot;margin:0px;margin-left:4px;&quot;&gt;+&amp;nbsp;did&lt;span style=&quot;font-family: &amp;quot;JetBrains Mono&amp;quot;, monospace;&quot;&gt;&lt;font style=&quot;font-size: 13px;&quot;&gt;Receiv&lt;/font&gt;&lt;/span&gt;&lt;span style=&quot;background-color: initial;&quot;&gt;eMessage(String,List): void&lt;/span&gt;&lt;/p&gt;" style="verticalAlign=top;align=left;overflow=fill;fontSize=12;fontFamily=Helvetica;html=1;whiteSpace=wrap;" vertex="1" parent="1">
          <mxGeometry x="520" y="879" width="230" height="100" as="geometry" />
        </mxCell>
        <mxCell id="3DSVacBIxbCdVNpHXnvW-18" value="&lt;i&gt;CoreMessage&lt;/i&gt;" style="swimlane;fontStyle=1;align=center;verticalAlign=top;childLayout=stackLayout;horizontal=1;startSize=26;horizontalStack=0;resizeParent=1;resizeParentMax=0;resizeLast=0;collapsible=1;marginBottom=0;whiteSpace=wrap;html=1;" vertex="1" parent="1">
          <mxGeometry x="100" y="450" width="360" height="310" as="geometry" />
        </mxCell>
        <mxCell id="3DSVacBIxbCdVNpHXnvW-19" value="+&amp;nbsp;connector&lt;span style=&quot;background-color: initial;&quot;&gt;&amp;nbsp;:IConnector&lt;/span&gt;&lt;br&gt;+ msgQueue&lt;span style=&quot;background-color: initial;&quot;&gt;:&amp;nbsp;&lt;/span&gt;LinkedList&amp;lt;String&amp;gt;&lt;br&gt;+ typeSubscribes:&lt;font style=&quot;font-size: 12px;&quot;&gt;HashMap&lt;span style=&quot;font-family: &amp;quot;JetBrains Mono&amp;quot;, monospace;&quot;&gt;&amp;lt;&lt;/span&gt;&lt;span style=&quot;font-family: &amp;quot;JetBrains Mono&amp;quot;, monospace;&quot;&gt;String&lt;/span&gt;&lt;span style=&quot;font-family: &amp;quot;JetBrains Mono&amp;quot;, monospace;&quot;&gt;, &lt;/span&gt;&lt;span style=&quot;font-family: &amp;quot;JetBrains Mono&amp;quot;, monospace;&quot;&gt;Subscribe&lt;/span&gt;&amp;gt;&amp;nbsp;&lt;br&gt;+ timer:Timer&lt;br&gt;+&amp;nbsp;msgThread&amp;nbsp;:Thread&lt;br&gt;...&lt;br&gt;&lt;span style=&quot;font-family: &amp;quot;JetBrains Mono&amp;quot;, monospace;&quot;&gt;&lt;br&gt;&lt;/span&gt;&lt;/font&gt;" style="text;strokeColor=none;fillColor=none;align=left;verticalAlign=top;spacingLeft=4;spacingRight=4;overflow=hidden;rotatable=0;points=[[0,0.5],[1,0.5]];portConstraint=eastwest;whiteSpace=wrap;html=1;" vertex="1" parent="3DSVacBIxbCdVNpHXnvW-18">
          <mxGeometry y="26" width="360" height="94" as="geometry" />
        </mxCell>
        <mxCell id="3DSVacBIxbCdVNpHXnvW-20" value="" style="line;strokeWidth=1;fillColor=none;align=left;verticalAlign=middle;spacingTop=-1;spacingLeft=3;spacingRight=3;rotatable=0;labelPosition=right;points=[];portConstraint=eastwest;strokeColor=inherit;" vertex="1" parent="3DSVacBIxbCdVNpHXnvW-18">
          <mxGeometry y="120" width="360" height="8" as="geometry" />
        </mxCell>
        <mxCell id="3DSVacBIxbCdVNpHXnvW-21" value="+&amp;nbsp;start&lt;span style=&quot;background-color: initial;&quot;&gt;(url): void&lt;/span&gt;&lt;br&gt;+&amp;nbsp;checkTask(): void&lt;br&gt;+&amp;nbsp;subscribe(&lt;font style=&quot;font-size: 12px;&quot;&gt;key,modelType,isCache&lt;br&gt;,isCallBackOnMainThread ,subscribe&lt;/font&gt;): void&lt;br&gt;+&amp;nbsp;unSubscribe(key): void&lt;br&gt;&lt;font style=&quot;border-color: var(--border-color);&quot;&gt;+&lt;/font&gt;&lt;font style=&quot;border-color: var(--border-color);&quot;&gt;&amp;nbsp;&lt;/font&gt;&lt;font style=&quot;border-color: var(--border-color);&quot;&gt;&lt;font style=&quot;border-color: var(--border-color);&quot;&gt;notifyInterval()：void&lt;/font&gt;&lt;br style=&quot;border-color: var(--border-color);&quot;&gt;&lt;font style=&quot;border-color: var(--border-color);&quot;&gt;&lt;font style=&quot;border-color: var(--border-color);&quot;&gt;+&lt;/font&gt;&lt;font style=&quot;border-color: var(--border-color);&quot;&gt;&amp;nbsp;&lt;/font&gt;msgQueue(): void&lt;br style=&quot;border-color: var(--border-color);&quot;&gt;&lt;/font&gt;&lt;font style=&quot;border-color: var(--border-color);&quot;&gt;+&amp;nbsp;&lt;/font&gt;&lt;/font&gt;&lt;font style=&quot;border-color: var(--border-color);&quot;&gt;notify(modelType,data):void&lt;/font&gt;&lt;br&gt;+&amp;nbsp;&lt;font style=&quot;font-size: 12px;&quot;&gt;didReceiveMessage(msg)&lt;br&gt;+ &lt;i&gt;message(rootModel&lt;span style=&quot;background-color: initial;&quot;&gt;)&lt;br&gt;&lt;/span&gt;&lt;/i&gt;...&lt;br&gt;&lt;/font&gt;" style="text;strokeColor=none;fillColor=none;align=left;verticalAlign=top;spacingLeft=4;spacingRight=4;overflow=hidden;rotatable=0;points=[[0,0.5],[1,0.5]];portConstraint=eastwest;whiteSpace=wrap;html=1;" vertex="1" parent="3DSVacBIxbCdVNpHXnvW-18">
          <mxGeometry y="128" width="360" height="182" as="geometry" />
        </mxCell>
        <mxCell id="3DSVacBIxbCdVNpHXnvW-24" value="" style="endArrow=block;dashed=1;endFill=0;endSize=12;html=1;rounded=0;entryX=0.5;entryY=1;entryDx=0;entryDy=0;exitX=0.5;exitY=0;exitDx=0;exitDy=0;edgeStyle=orthogonalEdgeStyle;" edge="1" parent="1" source="3DSVacBIxbCdVNpHXnvW-18" target="3DSVacBIxbCdVNpHXnvW-10">
          <mxGeometry width="160" relative="1" as="geometry">
            <mxPoint x="170" y="400" as="sourcePoint" />
            <mxPoint x="330" y="400" as="targetPoint" />
          </mxGeometry>
        </mxCell>
        <mxCell id="3DSVacBIxbCdVNpHXnvW-25" value="" style="endArrow=block;dashed=1;endFill=0;endSize=12;html=1;rounded=0;entryX=0.5;entryY=1;entryDx=0;entryDy=0;exitX=0.5;exitY=0;exitDx=0;exitDy=0;edgeStyle=orthogonalEdgeStyle;" edge="1" parent="1" source="3DSVacBIxbCdVNpHXnvW-18" target="3DSVacBIxbCdVNpHXnvW-11">
          <mxGeometry width="160" relative="1" as="geometry">
            <mxPoint x="340" y="460" as="sourcePoint" />
            <mxPoint x="190" y="340" as="targetPoint" />
          </mxGeometry>
        </mxCell>
        <mxCell id="3DSVacBIxbCdVNpHXnvW-30" value="Subscribe&lt;br&gt;" style="swimlane;fontStyle=1;align=center;verticalAlign=top;childLayout=stackLayout;horizontal=1;startSize=26;horizontalStack=0;resizeParent=1;resizeParentMax=0;resizeLast=0;collapsible=1;marginBottom=0;whiteSpace=wrap;html=1;" vertex="1" parent="1">
          <mxGeometry x="-300" y="460" width="330" height="230" as="geometry" />
        </mxCell>
        <mxCell id="3DSVacBIxbCdVNpHXnvW-31" value="+ modelType: String&lt;br&gt;+&amp;nbsp;callback:&amp;nbsp;&lt;span style=&quot;font-family: &amp;quot;JetBrains Mono&amp;quot;, monospace;&quot;&gt;&lt;font style=&quot;font-size: 12px;&quot;&gt;ISubscribeCallback&lt;/font&gt;&lt;/span&gt;&lt;span style=&quot;background-color: initial;&quot;&gt;&lt;br&gt;&lt;/span&gt;+&amp;nbsp;subscribes:&amp;nbsp;Set&lt;font style=&quot;font-size: 12px;&quot;&gt;&lt;span style=&quot;font-family: &amp;quot;JetBrains Mono&amp;quot;, monospace;&quot;&gt;&amp;lt;&lt;/span&gt;&lt;span style=&quot;font-family: &amp;quot;JetBrains Mono&amp;quot;, monospace;&quot;&gt;IMessageSubscribe&lt;/span&gt;&lt;span style=&quot;font-family: &amp;quot;JetBrains Mono&amp;quot;, monospace;&quot;&gt;&amp;gt;&lt;br&gt;...&lt;br&gt;&lt;/span&gt;&lt;/font&gt;" style="text;strokeColor=none;fillColor=none;align=left;verticalAlign=top;spacingLeft=4;spacingRight=4;overflow=hidden;rotatable=0;points=[[0,0.5],[1,0.5]];portConstraint=eastwest;whiteSpace=wrap;html=1;" vertex="1" parent="3DSVacBIxbCdVNpHXnvW-30">
          <mxGeometry y="26" width="330" height="74" as="geometry" />
        </mxCell>
        <mxCell id="3DSVacBIxbCdVNpHXnvW-32" value="" style="line;strokeWidth=1;fillColor=none;align=left;verticalAlign=middle;spacingTop=-1;spacingLeft=3;spacingRight=3;rotatable=0;labelPosition=right;points=[];portConstraint=eastwest;strokeColor=inherit;" vertex="1" parent="3DSVacBIxbCdVNpHXnvW-30">
          <mxGeometry y="100" width="330" height="8" as="geometry" />
        </mxCell>
        <mxCell id="3DSVacBIxbCdVNpHXnvW-33" value="+&amp;nbsp;add&lt;font style=&quot;font-size: 12px;&quot;&gt;&lt;span style=&quot;font-family: &amp;quot;JetBrains Mono&amp;quot;, monospace;&quot;&gt;(&lt;/span&gt;&lt;span style=&quot;font-family: &amp;quot;JetBrains Mono&amp;quot;, monospace;&quot;&gt;subscribe&lt;/span&gt;&lt;span style=&quot;font-family: &amp;quot;JetBrains Mono&amp;quot;, monospace;&quot;&gt;)&lt;/span&gt;&lt;/font&gt;: void&lt;br&gt;+&amp;nbsp;remove&lt;font style=&quot;border-color: var(--border-color);&quot;&gt;&lt;span style=&quot;border-color: var(--border-color); font-family: &amp;quot;JetBrains Mono&amp;quot;, monospace;&quot;&gt;(&lt;/span&gt;&lt;span style=&quot;border-color: var(--border-color); font-family: &amp;quot;JetBrains Mono&amp;quot;, monospace;&quot;&gt;subscribe&lt;/span&gt;&lt;span style=&quot;border-color: var(--border-color); font-family: &amp;quot;JetBrains Mono&amp;quot;, monospace;&quot;&gt;)&lt;/span&gt;&lt;/font&gt;&lt;span style=&quot;border-color: var(--border-color); background-color: initial;&quot;&gt;: void&lt;br&gt;&lt;/span&gt;+ notifyInterval(interval)&lt;span style=&quot;background-color: initial;&quot;&gt;: void&lt;/span&gt;&lt;br&gt;+&amp;nbsp;notify&lt;font style=&quot;border-color: var(--border-color);&quot;&gt;&lt;span style=&quot;border-color: var(--border-color); font-family: &amp;quot;JetBrains Mono&amp;quot;, monospace;&quot;&gt;(&lt;/span&gt;&lt;span style=&quot;border-color: var(--border-color); font-family: &amp;quot;JetBrains Mono&amp;quot;, monospace;&quot;&gt;rootModel,cacheSize&lt;/span&gt;&lt;span style=&quot;border-color: var(--border-color); font-family: &amp;quot;JetBrains Mono&amp;quot;, monospace;&quot;&gt;)&lt;/span&gt;&lt;/font&gt;&lt;span style=&quot;border-color: var(--border-color); background-color: initial;&quot;&gt;: void&lt;br&gt;&lt;/span&gt;+&amp;nbsp;dispatcher()&lt;span style=&quot;border-color: var(--border-color); background-color: initial;&quot;&gt;: void&lt;br&gt;&lt;/span&gt;+&amp;nbsp;callback&lt;span style=&quot;background-color: initial;&quot;&gt;(what, obj)&lt;/span&gt;&lt;span style=&quot;background-color: initial;&quot;&gt;: void&lt;br&gt;&lt;/span&gt;..." style="text;strokeColor=none;fillColor=none;align=left;verticalAlign=top;spacingLeft=4;spacingRight=4;overflow=hidden;rotatable=0;points=[[0,0.5],[1,0.5]];portConstraint=eastwest;whiteSpace=wrap;html=1;" vertex="1" parent="3DSVacBIxbCdVNpHXnvW-30">
          <mxGeometry y="108" width="330" height="122" as="geometry" />
        </mxCell>
        <mxCell id="3DSVacBIxbCdVNpHXnvW-34" value="" style="endArrow=block;dashed=1;endFill=0;endSize=12;html=1;rounded=0;entryX=1;entryY=0;entryDx=0;entryDy=0;exitX=0;exitY=0;exitDx=0;exitDy=0;" edge="1" parent="1" source="3DSVacBIxbCdVNpHXnvW-30" target="3DSVacBIxbCdVNpHXnvW-35">
          <mxGeometry width="160" relative="1" as="geometry">
            <mxPoint x="-340" y="564" as="sourcePoint" />
            <mxPoint x="500" y="204" as="targetPoint" />
          </mxGeometry>
        </mxCell>
        <mxCell id="3DSVacBIxbCdVNpHXnvW-35" value="&lt;p style=&quot;margin:0px;margin-top:4px;text-align:center;&quot;&gt;&lt;i&gt;&lt;font color=&quot;#009900&quot;&gt;&amp;lt;&amp;lt;Interface&amp;gt;&amp;gt;&lt;/font&gt;&lt;/i&gt;&lt;br&gt;&lt;/p&gt;&lt;div style=&quot;font-family: &amp;quot;JetBrains Mono&amp;quot;, monospace;&quot;&gt;&lt;pre style=&quot;text-align: center;&quot;&gt;&lt;div style=&quot;font-family: &amp;quot;JetBrains Mono&amp;quot;, monospace;&quot;&gt;&lt;pre style=&quot;&quot;&gt;&lt;div style=&quot;font-family: &amp;quot;JetBrains Mono&amp;quot;, monospace;&quot;&gt;&lt;pre style=&quot;&quot;&gt;&lt;font style=&quot;font-size: 14px;&quot;&gt;IConnector&lt;/font&gt;&lt;/pre&gt;&lt;/div&gt;&lt;/pre&gt;&lt;/div&gt;&lt;/pre&gt;&lt;/div&gt;&lt;hr size=&quot;1&quot;&gt;&lt;p style=&quot;margin:0px;margin-left:4px;&quot;&gt;+&amp;nbsp;start&lt;span style=&quot;background-color: initial;&quot;&gt;(String): boolean&lt;/span&gt;&lt;/p&gt;&lt;p style=&quot;margin:0px;margin-left:4px;&quot;&gt;+&amp;nbsp;connect(): void&lt;br&gt;&lt;/p&gt;&lt;p style=&quot;margin:0px;margin-left:4px;&quot;&gt;+ setCallback(IConnectorCallback):void&lt;/p&gt;" style="verticalAlign=top;align=left;overflow=fill;fontSize=12;fontFamily=Helvetica;html=1;whiteSpace=wrap;" vertex="1" parent="1">
          <mxGeometry x="-650" y="460" width="220" height="130" as="geometry" />
        </mxCell>
        <mxCell id="3DSVacBIxbCdVNpHXnvW-36" value="" style="endArrow=open;endFill=1;endSize=12;html=1;rounded=0;entryX=0.999;entryY=0.056;entryDx=0;entryDy=0;exitX=-0.002;exitY=-0.016;exitDx=0;exitDy=0;exitPerimeter=0;entryPerimeter=0;" edge="1" parent="1" source="3DSVacBIxbCdVNpHXnvW-21" target="3DSVacBIxbCdVNpHXnvW-33">
          <mxGeometry width="160" relative="1" as="geometry">
            <mxPoint x="305.52" y="779.998" as="sourcePoint" />
            <mxPoint x="294.48" y="856.2" as="targetPoint" />
          </mxGeometry>
        </mxCell>
        <mxCell id="3DSVacBIxbCdVNpHXnvW-41" value="OKWebSocketConnector" style="swimlane;fontStyle=1;align=center;verticalAlign=top;childLayout=stackLayout;horizontal=1;startSize=26;horizontalStack=0;resizeParent=1;resizeParentMax=0;resizeLast=0;collapsible=1;marginBottom=0;whiteSpace=wrap;html=1;" vertex="1" parent="1">
          <mxGeometry x="630" y="465" width="220" height="170" as="geometry" />
        </mxCell>
        <mxCell id="3DSVacBIxbCdVNpHXnvW-42" value="+&amp;nbsp;callback&lt;span style=&quot;background-color: initial;&quot;&gt;:&amp;nbsp;&lt;/span&gt;IConnectorCallback&lt;br&gt;+&amp;nbsp;webSocket:&amp;nbsp;WebSocket&lt;br&gt;+&amp;nbsp;httpClient&lt;span style=&quot;background-color: initial;&quot;&gt;:&amp;nbsp;OkHttpClinet&lt;br&gt;...&lt;br&gt;&lt;/span&gt;" style="text;strokeColor=none;fillColor=none;align=left;verticalAlign=top;spacingLeft=4;spacingRight=4;overflow=hidden;rotatable=0;points=[[0,0.5],[1,0.5]];portConstraint=eastwest;whiteSpace=wrap;html=1;" vertex="1" parent="3DSVacBIxbCdVNpHXnvW-41">
          <mxGeometry y="26" width="220" height="64" as="geometry" />
        </mxCell>
        <mxCell id="3DSVacBIxbCdVNpHXnvW-43" value="" style="line;strokeWidth=1;fillColor=none;align=left;verticalAlign=middle;spacingTop=-1;spacingLeft=3;spacingRight=3;rotatable=0;labelPosition=right;points=[];portConstraint=eastwest;strokeColor=inherit;" vertex="1" parent="3DSVacBIxbCdVNpHXnvW-41">
          <mxGeometry y="90" width="220" height="8" as="geometry" />
        </mxCell>
        <mxCell id="3DSVacBIxbCdVNpHXnvW-44" value="+&amp;nbsp;connect(): void&lt;br&gt;+&amp;nbsp;start&lt;span style=&quot;background-color: initial;&quot;&gt;(url): void&lt;/span&gt;&lt;br&gt;+&amp;nbsp;stop&lt;span style=&quot;background-color: initial;&quot;&gt;(): void&lt;br&gt;&lt;/span&gt;..." style="text;strokeColor=none;fillColor=none;align=left;verticalAlign=top;spacingLeft=4;spacingRight=4;overflow=hidden;rotatable=0;points=[[0,0.5],[1,0.5]];portConstraint=eastwest;whiteSpace=wrap;html=1;" vertex="1" parent="3DSVacBIxbCdVNpHXnvW-41">
          <mxGeometry y="98" width="220" height="72" as="geometry" />
        </mxCell>
        <mxCell id="3DSVacBIxbCdVNpHXnvW-45" value="" style="endArrow=block;dashed=1;endFill=0;endSize=12;html=1;rounded=0;entryX=0.5;entryY=1;entryDx=0;entryDy=0;exitX=0.5;exitY=0;exitDx=0;exitDy=0;" edge="1" parent="1" source="3DSVacBIxbCdVNpHXnvW-41" target="3DSVacBIxbCdVNpHXnvW-12">
          <mxGeometry width="160" relative="1" as="geometry">
            <mxPoint x="760" y="560" as="sourcePoint" />
            <mxPoint x="920" y="560" as="targetPoint" />
          </mxGeometry>
        </mxCell>
        <mxCell id="3DSVacBIxbCdVNpHXnvW-46" value="" style="endArrow=open;endFill=1;endSize=12;html=1;rounded=0;entryX=0;entryY=0.5;entryDx=0;entryDy=0;exitX=1;exitY=0.5;exitDx=0;exitDy=0;" edge="1" parent="1" source="3DSVacBIxbCdVNpHXnvW-19" target="3DSVacBIxbCdVNpHXnvW-42">
          <mxGeometry width="160" relative="1" as="geometry">
            <mxPoint x="390" y="530" as="sourcePoint" />
            <mxPoint x="520" y="450" as="targetPoint" />
          </mxGeometry>
        </mxCell>
        <mxCell id="3DSVacBIxbCdVNpHXnvW-47" value="MessageManager" style="swimlane;fontStyle=1;align=center;verticalAlign=top;childLayout=stackLayout;horizontal=1;startSize=26;horizontalStack=0;resizeParent=1;resizeParentMax=0;resizeLast=0;collapsible=1;marginBottom=0;whiteSpace=wrap;html=1;" vertex="1" parent="1">
          <mxGeometry x="145" y="890" width="270" height="140" as="geometry" />
        </mxCell>
        <mxCell id="3DSVacBIxbCdVNpHXnvW-48" value="..." style="text;strokeColor=none;fillColor=none;align=left;verticalAlign=top;spacingLeft=4;spacingRight=4;overflow=hidden;rotatable=0;points=[[0,0.5],[1,0.5]];portConstraint=eastwest;whiteSpace=wrap;html=1;" vertex="1" parent="3DSVacBIxbCdVNpHXnvW-47">
          <mxGeometry y="26" width="270" height="26" as="geometry" />
        </mxCell>
        <mxCell id="3DSVacBIxbCdVNpHXnvW-49" value="" style="line;strokeWidth=1;fillColor=none;align=left;verticalAlign=middle;spacingTop=-1;spacingLeft=3;spacingRight=3;rotatable=0;labelPosition=right;points=[];portConstraint=eastwest;strokeColor=inherit;" vertex="1" parent="3DSVacBIxbCdVNpHXnvW-47">
          <mxGeometry y="52" width="270" height="8" as="geometry" />
        </mxCell>
        <mxCell id="3DSVacBIxbCdVNpHXnvW-50" value="+&amp;nbsp;check&lt;span style=&quot;background-color: initial;&quot;&gt;(): void&lt;br&gt;&lt;/span&gt;+&amp;nbsp;getWSUrl&lt;span style=&quot;background-color: initial;&quot;&gt;(): void&lt;br&gt;&lt;/span&gt;+&amp;nbsp;message(rootModel): Object&lt;br&gt;+&amp;nbsp;didReceiveMessage&lt;span style=&quot;background-color: initial;&quot;&gt;(modelType,msg): void&lt;br&gt;...&lt;br&gt;&lt;/span&gt;" style="text;strokeColor=none;fillColor=none;align=left;verticalAlign=top;spacingLeft=4;spacingRight=4;overflow=hidden;rotatable=0;points=[[0,0.5],[1,0.5]];portConstraint=eastwest;whiteSpace=wrap;html=1;" vertex="1" parent="3DSVacBIxbCdVNpHXnvW-47">
          <mxGeometry y="60" width="270" height="80" as="geometry" />
        </mxCell>
        <mxCell id="3DSVacBIxbCdVNpHXnvW-51" value="Extends" style="endArrow=block;endSize=16;endFill=0;html=1;rounded=0;exitX=0.5;exitY=0;exitDx=0;exitDy=0;" edge="1" parent="1" source="3DSVacBIxbCdVNpHXnvW-47">
          <mxGeometry width="160" relative="1" as="geometry">
            <mxPoint x="180" y="810" as="sourcePoint" />
            <mxPoint x="280" y="760" as="targetPoint" />
          </mxGeometry>
        </mxCell>
        <mxCell id="3DSVacBIxbCdVNpHXnvW-52" value="" style="endArrow=block;dashed=1;endFill=0;endSize=12;html=1;rounded=0;entryX=0;entryY=0.5;entryDx=0;entryDy=0;exitX=1;exitY=0.5;exitDx=0;exitDy=0;" edge="1" parent="1" source="3DSVacBIxbCdVNpHXnvW-48" target="3DSVacBIxbCdVNpHXnvW-13">
          <mxGeometry width="160" relative="1" as="geometry">
            <mxPoint x="350" y="920" as="sourcePoint" />
            <mxPoint x="510" y="920" as="targetPoint" />
          </mxGeometry>
        </mxCell>
        <mxCell id="3DSVacBIxbCdVNpHXnvW-53" value="&lt;h1&gt;&lt;span style=&quot;background-color: initial;&quot;&gt;&lt;font face=&quot;Verdana&quot;&gt;WS&lt;/font&gt;&lt;/span&gt;&lt;/h1&gt;&lt;h1 style=&quot;&quot;&gt;&lt;font face=&quot;Verdana&quot;&gt;&lt;span style=&quot;font-weight: 400;&quot;&gt;连接：&lt;/span&gt;&lt;/font&gt;&lt;/h1&gt;&lt;h1 style=&quot;&quot;&gt;&lt;span style=&quot;font-weight: normal;&quot;&gt;&lt;font face=&quot;Verdana&quot;&gt;注册：&lt;/font&gt;&lt;/span&gt;&lt;/h1&gt;&lt;h1 style=&quot;&quot;&gt;&lt;span style=&quot;font-weight: normal;&quot;&gt;分发：&lt;/span&gt;&lt;/h1&gt;&lt;h1 style=&quot;&quot;&gt;&lt;font face=&quot;Verdana&quot;&gt;&lt;span style=&quot;font-weight: normal;&quot;&gt;重连：&lt;/span&gt;&lt;/font&gt;&lt;br&gt;&lt;/h1&gt;" style="text;html=1;strokeColor=none;fillColor=none;spacing=5;spacingTop=-20;whiteSpace=wrap;overflow=hidden;rounded=0;align=left;" vertex="1" parent="1">
          <mxGeometry x="-690" y="-51" width="290" height="360" as="geometry" />
        </mxCell>
        <mxCell id="3DSVacBIxbCdVNpHXnvW-54" value="Application" style="html=1;whiteSpace=wrap;" vertex="1" parent="1">
          <mxGeometry x="225" y="1110" width="110" height="50" as="geometry" />
        </mxCell>
        <mxCell id="3DSVacBIxbCdVNpHXnvW-55" value="" style="endArrow=open;endFill=1;endSize=12;html=1;rounded=0;exitX=0.5;exitY=0;exitDx=0;exitDy=0;entryX=0.5;entryY=1.025;entryDx=0;entryDy=0;entryPerimeter=0;" edge="1" parent="1" source="3DSVacBIxbCdVNpHXnvW-54" target="3DSVacBIxbCdVNpHXnvW-50">
          <mxGeometry width="160" relative="1" as="geometry">
            <mxPoint x="260" y="1070" as="sourcePoint" />
            <mxPoint x="260" y="1070" as="targetPoint" />
          </mxGeometry>
        </mxCell>
      </root>
    </mxGraphModel>
  </diagram>
</mxfile>
